<svg id="Layer_1" height="512" viewBox="0 0 512 512" width="512" xmlns="http://www.w3.org/2000/svg" data-name="Layer 1"><path d="m252 453v-91.53c0-23.28-18.83-42.47-42.1-42.47h-25.99a19.081 19.081 0 0 1 -10.1-2.685l-82.4-1.643a19.157 19.157 0 0 1 -12.28 4.328h-25.99c-23.27 0-42.14 19.19-42.14 42.47v91.53" fill="#4689d3"/><g fill="#efc597"><path d="m95 317v15.84a31.159 31.159 0 0 0 26.485 30.8 68.78 68.78 0 0 0 19.852 0 30.933 30.933 0 0 0 19.032-10.48 31.468 31.468 0 0 0 7.631-20.32v-14.84z"/><path d="m59.21 412.63v40.37h-48.21v-72.98c5.08 9.63 19 29.61 48.17 32.61z"/><path d="m252.04 379.71v73.29h-47.23v-40.37h.49c27.72-3.85 41.23-22.44 46.74-32.92z"/></g><g id="_Path_" data-name=" Path "><path d="m304.41 428.68h53.34v24.32h-53.34z" fill="#6994fe"/><path d="m480.76 153h-71.34l51.08-53.03a84.045 84.045 0 0 1 20.26 53.03z" fill="#eadf53"/><path d="m49.93 185.59v25.72a20.119 20.119 0 0 1 -16.04 1.02 16.307 16.307 0 0 1 -3.14-28.52 13.814 13.814 0 0 1 17.54 1.78z" fill="#efc597"/><path d="m387.81 168h84c-4.57 43-40.25 74.69-83.45 74.69a83.932 83.932 0 0 1 -52.39-149.52l47.34 72.28a5.5 5.5 0 0 0 4.5 2.55z" fill="#5fcda4"/><path d="m304.41 270.09h53.34v24.31h-53.34z" fill="#6994fe"/><path d="m95.29 318.21-3.88-3.29-4.56-3.87c-1.97-1.68-11.01-10.73-13.41-13.65a102.179 102.179 0 0 1 -23.51-64.61v-66.9h.05l21.91 55.81a23.428 23.428 0 0 0 35.32 10.62 46.219 46.219 0 0 1 53.33.1l.36.26a23.454 23.454 0 0 0 35.47-10.73l21.47-55.97v66.37a103.876 103.876 0 0 1 -31.67 73.49c-.97.94-6.89 6-12.36 10.64-2.22 1.87-4.36 3.69-6.06 5.12v.01c-2.18 1.83-3.64 3.07-3.64 3.07l-29.69 24.83-30.76-24.2z" fill="#6d7486"/><path d="m304.41 375.81h53.34v24.32h-53.34z" fill="#6994fe"/><path d="m80.78 123.07v.01a50.2 50.2 0 0 1 -30.85 36.05v-36.29c.78.21 14.6.26 30.85.23z" fill="#4a5160"/><path d="m244.04 194.94a16.341 16.341 0 0 1 -10.01 17.39 19.76 19.76 0 0 1 -15.96-1.05h-.23v-25.69h1.79a13.814 13.814 0 0 1 17.54-1.78 16.284 16.284 0 0 1 6.87 11.13z" fill="#efc597"/><path d="m217.84 157.73v8.25l-21.47 55.97a23.454 23.454 0 0 1 -35.47 10.73l-.36-.26a46.219 46.219 0 0 0 -53.33-.1 23.428 23.428 0 0 1 -35.32-10.62l-21.91-55.81h-.05v-6.76a50.2 50.2 0 0 0 30.85-36.05v-.01c15.5-.02 33.21-.11 43.94-.17a17.361 17.361 0 0 1 14.33 7.45 63.775 63.775 0 0 0 52.41 27.38z" fill="#ffd8b7"/><path d="m448.04 86.4-55.7 57.83-44.03-67.21a83.8 83.8 0 0 1 99.73 9.38z" fill="#b9d49b"/><path d="m304.41 322.95h53.34v24.32h-53.34z" fill="#6994fe"/><path d="m194.225 94.15c-1.27-.18-23.542 0-23.542 0s.768-12.92.008-15.46a27.715 27.715 0 0 0 -26.511-19.69h-114.18v36.15c0 12.77 8.415 24.49 20.165 27.69l74.672.06a17.383 17.383 0 0 1 14.272 7.585 63.787 63.787 0 0 0 52.351 27.515h26.54v-36.42a27.671 27.671 0 0 0 -23.775-27.43z" fill="#6d7486"/></g><path d="m356.75 270.09h99.87v24.31h-99.87z" fill="#ea7288"/><path d="m356.75 375.81h99.87v24.32h-99.87z" fill="#ea7288"/><path d="m356.75 428.68h126.2v24.32h-126.2z" fill="#f3ce7d"/><path d="m356.75 322.95h144.25v24.32h-144.25z" fill="#f3ce7d"/><path d="m133.66 325.31-8.37-7.1-3.88-3.29-4.56-3.87c-1.97-1.68-10.975-10.73-13.375-13.65a102.144 102.144 0 0 1 -23.475-64.61v-.69c-4-2.518-6.36-5.971-8.075-10.347l-21.945-55.753h.02v66.79a102.144 102.144 0 0 0 23.475 64.61c2.4 2.92 11.423 11.97 13.392 13.65l4.552 3.87 3.875 3.29 8.368 7.1 30.759 24.2 14.541-12.161z" fill="#4d5360"/><path d="m80 166a10.692 10.692 0 0 1 5.665-9.441c12.935-6.884 21.826-19.059 25.335-33.479v-.08h-30v.08c-4 16.44-15 29.96-31 36.05v6.87h-.02l21.91 55.755a23.421 23.421 0 0 0 35.32 10.579c.529-.373 1.065-.71 1.606-1.058a23.2 23.2 0 0 1 -6.926-9.521l-21.91-55.755z" fill="#d6af92"/><path d="m60 95.15v-36.15h-30v36.15c0 12.77 8.415 24.85 20.165 27.85h30c-11.75-3-20.165-15.08-20.165-27.85z" fill="#4d5360"/><path d="m177.132 193.547a6 6 0 0 1 -6-6 6.44 6.44 0 0 0 -12.88 0 6 6 0 0 1 -12 0 18.44 18.44 0 0 1 36.88 0 6 6 0 0 1 -6 6z" fill="#af8d75"/><path d="m110.787 193.547a6 6 0 0 1 -6-6 6.44 6.44 0 0 0 -12.88 0 6 6 0 0 1 -12 0 18.44 18.44 0 0 1 36.88 0 6 6 0 0 1 -6 6z" fill="#af8d75"/><path d="m124.054 269.174q-1.451 0-2.914-.119a6 6 0 1 1 .98-11.96 23.3 23.3 0 0 0 22.589-12.446 6 6 0 0 1 10.634 5.561 35.271 35.271 0 0 1 -31.289 18.964z" fill="#af8d75"/><path d="m198.466 388.166h-36.4a6 6 0 0 1 0-12h36.4a6 6 0 1 1 0 12z" fill="#f3ce7d"/><path d="m80 369a6 6 0 0 1 -6-6v-2a6 6 0 0 1 12 0v2a6 6 0 0 1 -6 6z" fill="#f4f8fc"/><path d="m80 437a6 6 0 0 1 -6-6v-48a6 6 0 0 1 12 0v48a6 6 0 0 1 -6 6z" fill="#f4f8fc"/></svg>